<svg xmlns="http://www.w3.org/2000/svg" width="700" height="970" viewBox="0 0 700 970" role="img" aria-labelledby="title desc">
  <title id="title">YouBuddy dashboard screenshot</title>
  <desc id="desc">Dashboard showing today's progress and a button to open Day 1 learning.</desc>
  <rect width="700" height="970" fill="#fbf4e8"/>
  <rect x="20" y="29" width="48" height="48" rx="14" fill="#2a1d12"/>
  <text x="44" y="61" text-anchor="middle" font-family="Arial, sans-serif" font-size="24" font-weight="700" fill="#fff">Y</text>
  <text x="84" y="61" font-family="Arial, sans-serif" font-size="22" font-weight="700" fill="#2a1d12">YouBuddy</text>
  <text x="196" y="61" font-family="Arial, sans-serif" font-size="15" fill="#a08f79">6기 · 비즈니스 영어</text>
  <rect x="473" y="41" width="120" height="28" rx="14" fill="#eee0ff"/>
  <text x="533" y="60" text-anchor="middle" font-family="Arial, sans-serif" font-size="14" letter-spacing="2" fill="#7c5bb0">PREMIUM</text>
  <rect x="611" y="25" width="56" height="56" rx="18" fill="#fffaf0" stroke="#e6d6bd"/>
  <circle cx="639" cy="56" r="6" fill="none" stroke="#2a1d12" stroke-width="2"/>
  <path d="M628 72c2-9 20-9 22 0" fill="none" stroke="#2a1d12" stroke-width="2" stroke-linecap="round"/>

  <rect x="14" y="106" width="660" height="382" rx="38" fill="#2a1d12"/>
  <text x="45" y="156" font-family="Arial, sans-serif" font-size="14" letter-spacing="6" fill="#b2a28e">MY PROGRESS · DAY 1/20</text>
  <rect x="488" y="136" width="156" height="33" rx="16" fill="#ffd4bc"/>
  <text x="566" y="157" text-anchor="middle" font-family="Arial, sans-serif" font-size="13" font-weight="700" letter-spacing="2" fill="#e76f37">TODAY · DAY 1</text>
  <text x="46" y="262" font-family="Arial, sans-serif" font-size="74" font-weight="800" fill="#ef7337">0</text>
  <text x="113" y="262" font-family="Arial, sans-serif" font-size="74" font-weight="800" fill="#83796d">/20</text>
  <text x="46" y="300" font-family="Arial, sans-serif" font-size="17" fill="#c7b9a6">6기 유버디 비즈니스 영어 챌린지</text>
  <text x="575" y="269" text-anchor="middle" font-family="Arial, sans-serif" font-size="18" font-weight="700" fill="#ef7337">0일 연속</text>
  <text x="575" y="298" text-anchor="middle" font-family="Arial, sans-serif" font-size="16" fill="#c7b9a6">오늘부터 시작</text>
  <g transform="translate(46 332)">
    <rect width="26" height="26" rx="3" fill="none" stroke="#ef7337" stroke-width="2"/>
    <g fill="#3d2f23">
      <rect x="30" width="27" height="26" rx="3"/><rect x="60" width="27" height="26" rx="3"/><rect x="90" width="27" height="26" rx="3"/><rect x="120" width="27" height="26" rx="3"/>
      <rect x="150" width="27" height="26" rx="3"/><rect x="180" width="27" height="26" rx="3"/><rect x="210" width="27" height="26" rx="3"/><rect x="240" width="27" height="26" rx="3"/>
      <rect x="270" width="27" height="26" rx="3"/><rect x="300" width="27" height="26" rx="3"/><rect x="330" width="27" height="26" rx="3"/><rect x="360" width="27" height="26" rx="3"/>
      <rect x="390" width="27" height="26" rx="3"/><rect x="420" width="27" height="26" rx="3"/><rect x="450" width="27" height="26" rx="3"/><rect x="480" width="27" height="26" rx="3"/>
      <rect x="510" width="27" height="26" rx="3"/><rect x="540" width="27" height="26" rx="3"/><rect x="570" width="27" height="26" rx="3"/>
    </g>
  </g>
  <rect x="45" y="386" width="598" height="71" rx="35" fill="#ef7337"/>
  <text x="344" y="428" text-anchor="middle" font-family="Arial, sans-serif" font-size="22" font-weight="700" fill="#fff">오늘의 학습 열기 · Day 1 →</text>

  <rect x="14" y="508" width="660" height="205" rx="28" fill="#fbf8f2" stroke="#e8d3f4"/>
  <text x="39" y="557" font-family="Arial, sans-serif" font-size="16" font-weight="700" letter-spacing="3" fill="#ad8bc4">WEEK 1 · JUN 8</text>
  <rect x="588" y="532" width="60" height="32" rx="16" fill="#efe3f5"/>
  <text x="618" y="554" text-anchor="middle" font-family="Arial, sans-serif" font-size="16" font-weight="700" fill="#a889bf">D-0</text>
  <text x="39" y="604" font-family="Arial, sans-serif" font-size="25" font-weight="800" fill="#2a1d12">Week 1 — Warm-up &amp; Self-intro</text>
  <text x="39" y="638" font-family="Arial, sans-serif" font-size="18" fill="#5d4a38">발표 없음 · 첫 주는 오리엔테이션 및 자기소개가 있습니다</text>
  <text x="39" y="681" font-family="Arial, sans-serif" font-size="18" font-weight="700" fill="#ad8bc4">미팅 노트 준비하기 →</text>
  <rect x="14" y="727" width="660" height="58" rx="18" fill="#fffaf2" stroke="#eadbc5" stroke-dasharray="3 3"/>
  <text x="350" y="764" text-anchor="middle" font-family="Arial, sans-serif" font-size="17" font-weight="700" fill="#7c5bb0">내 PT 스튜디오 열기 →</text>
  <g transform="translate(14 821)">
    <rect width="218" height="136" rx="30" fill="#f5ecdd"/>
    <text x="18" y="38" font-family="Arial, sans-serif" font-size="14" letter-spacing="3" fill="#a08f79">오늘 인증률</text>
    <text x="18" y="86" font-family="Arial, sans-serif" font-size="44" font-weight="800" fill="#ef7337">0%</text>
    <text x="18" y="111" font-family="Arial, sans-serif" font-size="16" fill="#a08f79">어제 이 시간과 동일</text>
  </g>
  <g transform="translate(244 821)">
    <rect width="218" height="136" rx="30" fill="#f5ecdd"/>
    <text x="18" y="38" font-family="Arial, sans-serif" font-size="14" letter-spacing="3" fill="#a08f79">베이직</text>
    <text x="18" y="86" font-family="Arial, sans-serif" font-size="44" font-weight="800" fill="#2a1d12">0%</text>
    <text x="18" y="111" font-family="Arial, sans-serif" font-size="16" fill="#a08f79">0/30 인증</text>
  </g>
  <g transform="translate(474 821)">
    <rect width="212" height="136" rx="30" fill="#f5ecdd"/>
    <text x="18" y="38" font-family="Arial, sans-serif" font-size="14" letter-spacing="3" fill="#a08f79">프리미엄</text>
    <text x="18" y="86" font-family="Arial, sans-serif" font-size="44" font-weight="800" fill="#2a1d12">0%</text>
    <text x="18" y="111" font-family="Arial, sans-serif" font-size="16" fill="#a08f79">0/9 인증</text>
  </g>
</svg>
